<?xml version="1.0" encoding="utf-8"?>
<!-- Generator: Adobe Illustrator 23.1.0, SVG Export Plug-In . SVG Version: 6.00 Build 0)  -->
<svg version="1.1" id="Layer_1" xmlns="http://www.w3.org/2000/svg" xmlns:xlink="http://www.w3.org/1999/xlink" x="0px" y="0px"
	 viewBox="0 0 388.7 84.5" style="enable-background:new 0 0 388.7 84.5;" xml:space="preserve">
<style type="text/css">
	.st0{fill:#FFFFFF;}
	.st1{font-family:'Verdana';}
	.st2{font-size:60px;}
	.st3{font-size:18px;}
</style>
<title>header</title>
<path class="st0" d="M2,7.7l-0.6,6.1H2l2.1-2.7h1.1l-2.4,3.1l2.1,3.2H3.7l-1.8-2.8H1.3L1,17.4H0l1-9.6L2,7.7z"/>
<path class="st0" d="M10.6,17.4h-1v-1.3c-1.2,1.2-1.6,1.4-2.2,1.4c-0.8,0-1.4-0.6-1.4-2.2C6,12.6,7.1,11,9,11c0.7,0,1.4,0.1,2,0.3
	l-0.4,4.1V17.4z M9.9,12c-0.4-0.1-0.7-0.1-1.1-0.1c-1.2,0-1.8,1.2-1.8,3.4c0,1,0.3,1.3,0.7,1.3c0.4,0,0.7-0.3,1.9-1.4L9.9,12z"/>
<path class="st0" d="M15.3,11c0.4,0,0.7,0,1.1,0.1l0.3-3.3l1-0.1L17,15.3v2h-1V16c-1.2,1.2-1.6,1.4-2.2,1.4c-0.8,0-1.4-0.6-1.4-2.2
	C12.4,12.6,13.5,11,15.3,11z M14.1,16.5c0.4,0,0.7-0.3,1.9-1.4l0.3-3.1c-0.4-0.1-0.7-0.1-1.1-0.1c-1.2,0-1.8,1.2-1.8,3.4
	C13.4,16.2,13.7,16.5,14.1,16.5L14.1,16.5z"/>
<path class="st0" d="M23.4,17.4h-1v-1.3c-1.2,1.2-1.6,1.4-2.2,1.4c-0.8,0-1.4-0.6-1.4-2.2c0-2.7,1.1-4.3,3-4.3c0.7,0,1.4,0.1,2,0.3
	l-0.4,4.1V17.4z M22.7,12c-0.4-0.1-0.7-0.1-1.1-0.1c-1.2,0-1.8,1.2-1.8,3.4c0,1,0.3,1.3,0.7,1.3s0.7-0.3,1.9-1.4L22.7,12z"/>
<path class="st0" d="M28.4,12c-0.4-0.1-0.9-0.2-1.3-0.2c-0.4,0-0.8,0.3-0.8,0.7c0,0,0,0.1,0,0.1c0,0.4,0.1,0.7,0.8,1.3
	c1.2,1,1.4,1.4,1.4,2c0,0.9-0.7,1.7-1.7,1.7c-0.1,0-0.2,0-0.2,0c-0.6,0-1.3-0.1-1.8-0.5l0.3-0.8c0.5,0.3,1,0.4,1.6,0.4
	c0.6,0,0.9-0.3,0.9-0.7c0-0.4-0.1-0.7-1-1.3c-0.7-0.4-1.2-1.2-1.2-2c0-0.9,0.8-1.7,1.7-1.7c0,0,0.1,0,0.1,0c0.5,0,1,0.1,1.5,0.2
	L28.4,12z"/>
<path class="st0" d="M31.6,11.1h1.6l-0.1,0.8h-1.6l-0.3,3.4v0.9c0,0.3,0.1,0.4,0.4,0.4c0.4,0,0.8-0.1,1.2-0.3l0.1,0.8
	c-0.6,0.3-1.2,0.4-1.8,0.4c-0.7,0-1-0.4-1-1.1c0-0.3,0-0.7,0.1-1l0.4-3.6h-0.9l0.1-0.7l0.9-0.1l0.2-2.1h0.8L31.6,11.1z"/>
<path class="st0" d="M35.1,14.5v0.4c0,1.3,0.4,1.7,1.2,1.7c0.8,0,1.5-0.3,2.1-0.7l0.3,0.8c-0.8,0.4-1.7,0.7-2.6,0.7
	c-1.3,0-2-0.8-2-2.5c0-2.4,1-4.1,2.7-4.1c0.8-0.1,1.6,0.4,1.7,1.2c0,0.2,0,0.3,0,0.5c0,0.6-0.1,1.1-0.2,1.7L35.1,14.5z M37.5,13.5
	c0.1-0.3,0.1-0.5,0.1-0.8c0-0.7-0.3-1-0.9-1c-0.8,0-1.3,0.7-1.5,2L37.5,13.5z"/>
<path class="st0" d="M41,17.4h-1l0.6-6.3h0.9l-0.1,1.6c1-1.5,1.2-1.7,1.8-1.7c0.2,0,0.5,0,0.7,0.1L43.7,12h-0.5
	c-0.4,0-0.5,0.2-1.8,2L41,17.4z"/>
<polygon class="st0" points="51.4,50.7 63.7,8.9 54.1,8.9 37.1,66.4 "/>
<polygon class="st0" points="65.6,35.1 59.2,42.2 78.2,76.9 89.3,76.9 "/>
<text transform="matrix(1 0 0 1 105.29 51.81)" class="st0 st1 st2">Tijdreis</text>
<text transform="matrix(1 0 0 1 117.7714 76.9504)" class="st0 st1 st3">meer dan 200 jaar topografie</text>
</svg>
